# xmcd
#
# Track frame offsets: 
#        150
#        32239
#        36258
#        50884
#        92893
#        105555
#        123759
#        138363
#        151929
#        165347
#        174395
#        198775
#        208037
#        225803
#        240745
#
# Disc length: 3819 seconds
#
# Revision: 0
# Processed by: cddbd v1.5.2PL0 Copyright (c) Steve Scherf et al.
# Submitted via: ExactAudioCopyFreeDBPlugin 1.0
#
DISCID=bb0ee90f
DTITLE=瑞鸣 - 金玉良缘
DYEAR=1900
DGENRE=
TTITLE0=碧波潭《追鱼》
TTITLE1=天上掉下个林妹妹《红楼梦》
TTITLE2=金玉良缘《红楼梦》
TTITLE3=宝玉哭灵《红楼梦》
TTITLE4=问凤喜《啼笑因缘》
TTITLE5=小生虚度二十岁《玉簪记》
TTITLE6=测字看相《皇帝与村姑》
TTITLE7=夫妻携手往前行《追鱼》
TTITLE8=岂可暴露讲真情《盘夫》
TTITLE9=定把这透骨相思病儿缠《西厢记》
TTITLE10=一番话惊雷滚《韩非子》
TTITLE11=瘦了几斤我心也宽《亮眼哥》
TTITLE12=听说罢 心惆怅《西厢记》
TTITLE13=晴天霹雳将我震《真假驸马》
TTITLE14=爱歌《春香传》
EXTD=
EXTT0=
EXTT1=
EXTT2=
EXTT3=
EXTT4=
EXTT5=
EXTT6=
EXTT7=
EXTT8=
EXTT9=
EXTT10=
EXTT11=
EXTT12=
EXTT13=
EXTT14=
PLAYORDER=
